HIERARCHY
ROOT Hips
{
    OFFSET 11.235740661621094 89.73086929321289 -18.027729034423828
    CHANNELS 6 Xposition Yposition Zposition Zrotation Xrotation Yrotation
    JOINT RightUpLeg
    {
        OFFSET -11.235740661621094 0.0 0.0
        CHANNELS 3 Zrotation Xrotation Yrotation
        JOINT RightLeg
        {
            OFFSET 0.0 -44.66155242919922 0.0
            CHANNELS 3 Zrotation Xrotation Yrotation
            JOINT RightFoot
            {
                OFFSET 0.0 -45.06931686401367 0.0
                CHANNELS 3 Zrotation Xrotation Yrotation
                End Site
                {
                    OFFSET 0.0 0.0 18.027729034423828
                }
            }
        }
    }
    JOINT LeftUpLeg
    {
        OFFSET 11.235740661621094 0.0 0.0
        CHANNELS 3 Zrotation Xrotation Yrotation
        JOINT LeftLeg
        {
            OFFSET 0.0 -44.66155242919922 0.0
            CHANNELS 3 Zrotation Xrotation Yrotation
            JOINT LeftFoot
            {
                OFFSET 0.0 -45.06931686401367 0.0
                CHANNELS 3 Zrotation Xrotation Yrotation
                End Site
                {
                    OFFSET 0.0 0.0 18.027729034423828
                }
            }
        }
    }
    JOINT Spine
    {
        OFFSET 0.0 23.317001342773438 0.0
        CHANNELS 3 Zrotation Xrotation Yrotation
        JOINT Spine3
        {
            OFFSET 0.0 24.815975189208984 0.0
            CHANNELS 3 Zrotation Xrotation Yrotation
            JOINT Neck
            {
                OFFSET 0.0 11.172051429748535 0.0
                CHANNELS 3 Zrotation Xrotation Yrotation
                End Site
                {
                    OFFSET 0.0 4.468820571899414 0.0
                }
            }
            JOINT LeftArm
            {
                OFFSET 12.754597663879395 0.0 0.0
                CHANNELS 3 Zrotation Xrotation Yrotation
                JOINT LeftForeArm
                {
                    OFFSET 28.46978759765625 0.0 0.0
                    CHANNELS 3 Zrotation Xrotation Yrotation
                    JOINT LeftHand
                    {
                        OFFSET 16.100976943969727 0.0 0.0
                        CHANNELS 3 Zrotation Xrotation Yrotation
                        End Site
                        {
                            OFFSET 6.4403910636901855 0.0 0.0
                        }
                    }
                }
            }
            JOINT RightArm
            {
                OFFSET -12.754597663879395 0.0 0.0
                CHANNELS 3 Zrotation Xrotation Yrotation
                JOINT RightForeArm
                {
                    OFFSET -28.46978759765625 0.0 0.0
                    CHANNELS 3 Zrotation Xrotation Yrotation
                    JOINT RightHand
                    {
                        OFFSET -16.100976943969727 0.0 0.0
                        CHANNELS 3 Zrotation Xrotation Yrotation
                        End Site
                        {
                            OFFSET -6.4403910636901855 0.0 0.0
                        }
                    }
                }
            }
        }
    }
}
MOTION
Frames: 5
Frame Time: 0.03333333333333333
-1.5112573237274773e-05 88.75253295898438 -0.0010685930028557777 -4.448892633164875 -2.875012036844726 -36.69229033093342 -10.371568571539791 11.751173437201189 1.3158233212514938 8.102825870553529 15.099008870088793 -0.46827477509731297 -1.0172674671287475e-32 -1.9878466759146985e-16 -5.86414769394836e-15 -5.3128571958843 17.76272275961319 0.4115044768531975 0.5786953142566734 13.399517659887373 0.162525526259164 -3.975693351829397e-16 -3.103527865816518e-33 8.945310041616142e-16 8.589979846529575 15.315090986008181 -3.3620543310455813 2.0903681242462238e-07 -2.5484271104139533e-08 -8.179964025454389 -4.422471230028329 9.965577263799602 -179.391846758058 108.0302389587697 5.576714088213373 -176.20828723314258 3.2987568363211807e-06 2.9690172131952393e-06 67.90489095506776 -6.3611093629270335e-15 7.062250076880254e-31 -1.2722218725854067e-14 -118.56847051116507 23.600906372564026 172.8307963505849 7.567306497968191e-06 2.1416172632357322e-06 -77.93240917777621 -7.951386703658794e-16 5.963540027744095e-15 1.5902773407317588e-15
-2.3376014723908156e-05 88.75254821777344 -0.0010691223433241248 -4.398449700494436 -3.3732459301260933 -35.883518287489764 -10.55619273687692 12.192955553028588 1.3681045453613334 8.49328934683969 15.213570969403992 -0.5727509994153294 -3.975693351829396e-16 -6.896728590703373e-34 1.987846675914698e-16 -5.110470718216456 18.063319374785046 0.3034265080998235 0.37157904907233946 13.5917947956271 0.1302676246942445 0.0 0.0 2.9817700138720476e-15 8.120920481511508 15.50124025209769 -3.317741019170865 2.3644706141960915e-08 -2.6048468106493566e-07 -8.301640347896242 -3.923293712149995 10.523027242720197 -178.82979898935068 108.44774334771165 7.57009198772472 -176.53064962116125 3.393555439719903e-06 -1.4754061048073946e-06 68.50032431627174 3.1805546814635168e-15 -3.531125038440127e-31 -1.2722218725854067e-14 -118.55971634544005 23.201820564939375 172.87407367385825 6.819787857530155e-06 1.0133716801724662e-06 -78.05735698560285 1.5902773407317588e-15 -5.963540027744095e-15 -1.5902773407317588e-15
-6.192357977852225e-05 88.75259399414062 -0.0010836850851774216 -4.350946332023176 -4.111285559664858 -35.15082035869306 -10.797313375130194 12.95287765216684 1.4726865770559279 8.66699968723529 14.997692927941825 -0.5914817307710122 -3.975693351829396e-16 -1.987846675914698e-16 1.4908850069360234e-15 -5.237004201248175 18.385571588581783 0.30142251949745 0.5275226824834902 13.283982553813674 0.08604598397670404 3.9756933518293955e-16 1.0000256456519891e-32 2.8823776800763118e-15 7.699119066461809 15.991057965524647 -3.3414774141926618 -4.784299759671772e-07 -7.335059109896357e-07 -8.129916511928093 -3.537622517080393 10.64541361223133 -179.3959820853155 108.8439769297309 7.89380615653792 -176.34873670601277 -1.5915852847641117e-06 -3.0782026131226687e-06 68.2402691040966 -1.5902773407317584e-15 0.0 0.0 -117.7050724678779 24.44254072467222 172.0950680923775 -4.649669085877886e-06 -4.259553009977716e-07 -76.60474735779108 1.5902773407317582e-15 0.0 0.0
-6.920676969457418e-05 88.75265502929688 -0.0011111806379631162 -4.423893473055017 -4.12451547839187 -35.53915571233062 -10.802342649023014 12.783954610023622 1.4338345593545039 8.696200210580207 15.380583115499203 -0.6359607268444468 -7.951386703658791e-16 1.9878466759146977e-16 3.9756933518293955e-16 -5.16679296526171 18.070661346956076 0.24534992710779846 0.3703996875864212 13.71176612896613 0.08933004695757253 -1.1927080055488186e-15 3.206978794677068e-32 -3.0811623476677814e-15 7.5202500783626025 16.287597654090444 -3.376959138256442 2.2613890157287575e-07 4.296731936571561e-07 -8.184921513681724 -3.29715595742015 10.363761186087551 -178.4742202388344 109.24949425004041 8.64387770744208 -176.55942773375315 2.036457643906891e-06 -2.236318527073537e-06 69.03834619466937 -1.5902773407317584e-15 0.0 0.0 -118.05563076649435 23.64561845743032 171.97686020899104 3.1093350280695368e-06 3.035163559549728e-06 -77.07212279159715 3.1805546814635176e-15 3.975693351829397e-16 -1.1034765745125397e-32
-9.122340998146683e-05 88.7526626586914 -0.0011312211863696575 -4.387211175553788 -4.42640671003197 -35.315281399924366 -10.940302700980075 12.82747226237956 1.4118007351722077 8.842985558223809 15.397945494030655 -0.7069805189976713 -7.951386703658792e-16 1.517280289954742e-32 -2.1866313435061676e-15 -5.3920658848028795 18.00791579852898 0.23461507324839143 0.49801064616366325 13.999570924683537 0.05298598384323151 -3.9756933518293955e-16 9.939233379573486e-17 5.6653630263568886e-15 7.300231609795732 16.360081723917865 -3.4024937265728785 -7.953743541950764e-07 4.607654342726196e-08 -7.566518618811534 -3.270084741334301 10.6364695547259 -179.2739304737063 109.53389294739225 7.6472656255768605 -176.74528252180943 3.770085851612964e-06 6.489774532282667e-07 69.53528215238677 -3.531125038440127e-31 6.3611093629270335e-15 6.3611093629270335e-15 -117.79973602324533 24.343542281937882 171.55656619801934 -5.016371095558108e-07 8.83809878847153e-07 -77.13135188683904 0.0 -3.975693351829397e-16 0.0
